<svg height="480pt" viewBox="-48 0 480 480" width="480pt" xmlns="http://www.w3.org/2000/svg"><path d="m32 416h304v64h-304c-17.671875 0-32-14.328125-32-32s14.328125-32 32-32zm0 0" fill="#efedee"/><path d="m336 416h-304c-17.671875 0-32 14.328125-32 32h336zm0 0" fill="#d9d7d8"/><path d="m0 448v-448h352v416h-320c-17.671875 0-32 14.328125-32 32zm0 0" fill="#bc8f6f"/><path d="m32 416h280v-416h-312v448c0-17.671875 14.328125-32 32-32zm0 0" fill="#cb9e78"/><path d="m352 384h32v-64h-32" fill="#ca5057"/><path d="m352 288h32v-64h-32" fill="#599072"/><path d="m352 192h32v-64h-32" fill="#eebc5a"/><path d="m320 176c0 79.527344-64.472656 144-144 144s-144-64.472656-144-144 64.472656-144 144-144 144 64.472656 144 144zm0 0" fill="#d9d7d8"/><path d="m296 176c0-79.191406-59.097656-143.390625-132-143.390625s-132 64.199219-132 143.390625 59.097656 143.390625 132 143.390625 132-64.199219 132-143.390625zm0 0" fill="#efedee"/><path d="m176 72h-16c-35.34375 0-64 28.65625-64 64v80c0 35.34375 28.65625 64 64 64h16v-64h-32v-80h32zm0 0" fill="#70b48f"/><path d="m152 279.449219c2.625.328125 5.289062.550781 8 .550781h16v-64h-24zm0 0" fill="#599072"/><path d="m160 72c-2.710938 0-5.375.222656-8 .550781v63.449219h24v-64zm0 0" fill="#599072"/><g fill="#699ce6"><path d="m224 184h-16c0-4.414062-3.59375-8-8-8v-16c13.230469 0 24 10.769531 24 24zm0 0"/><path d="m256 184h-16c0-22.054688-17.945312-40-40-40v-16c30.878906 0 56 25.128906 56 56zm0 0"/><path d="m288 184h-16c0-39.703125-32.304688-72-72-72v-16c48.519531 0 88 39.480469 88 88zm0 0"/></g></svg>