<?xml version="1.0" encoding="iso-8859-1"?>
<!-- Generator: Adobe Illustrator 19.0.0, SVG Export Plug-In . SVG Version: 6.00 Build 0)  -->
<svg version="1.1" id="Capa_1" xmlns="http://www.w3.org/2000/svg" xmlns:xlink="http://www.w3.org/1999/xlink" x="0px" y="0px"
	 viewBox="0 0 512 512" style="enable-background:new 0 0 512 512;" xml:space="preserve">
<path style="fill:#3E4954;" d="M145.455,112.25v37.25v70c0,44.183,35.817,80,80,80h60c44.183,0,80-35.817,80-80V112.25H145.455z"/>
<path style="fill:#FFF9EB;" d="M202.78,231.499c0.004,0.001,0.007,0.002,0.011,0.004C191.599,243.659,186,259.226,186,275.258V308
	h70V208C236.18,208.028,216.766,216.302,202.78,231.499z"/>
<path style="fill:#E9E3D5;" d="M309.209,231.502c0.004-0.001,0.007-0.003,0.011-0.004c-28.78-31.271-77.629-31.305-106.44,0
	c0.004,0.001,0.007,0.002,0.011,0.004c-3.029,3.289-6.055,7.378-8.482,11.666c0.002,0.001,0.004,0.002,0.006,0.004
	c-1.238,2.195-2.347,4.449-3.309,6.758c11.976,7.217,25.288,12.206,39.587,14.824c10.376,1.899,17.907,11.071,17.907,21.808V308
	c9.823,0,66.985,0,77.5,0v-32.742C326,259.26,320.425,243.685,309.209,231.502z"/>
<path style="fill:#D3CDBF;" d="M265.547,264.689c-11.213,5.593-20.903-0.831-19.057,0.094c-14.001-7.018-30.49,3.162-30.49,18.823
	V308h80v-24.47C296,267.888,279.546,257.707,265.547,264.689z"/>
<path style="fill:#F7A16E;" d="M303.61,53.998C289.616,44.041,273.361,38,256.022,38c-47.301,0-86.524,44.956-93.804,91.72
	c-2.681-1.128-5.626-1.752-8.717-1.752c-12.426,0-22.5,10.074-22.5,22.5s10.074,22.5,22.5,22.5c4.034,0,7.816-1.067,11.09-2.926
	c2.748,9.39,6.967,18.168,12.335,26.191c2.631,3.933,17.707,15.729,39.198,20.227l51.212,10.717l45.959-45.072
	C350.604,145.517,346.281,84.359,303.61,53.998z"/>
<g>
	<path style="fill:#CE795F;" d="M358.142,128c-2.922,0-5.689,0.641-8.191,1.767c-0.111-0.757-0.228-1.512-0.355-2.264
		c-5.037-29.67-21.492-56.699-45.986-73.505c13.955,19.248,21.004,41.231,21.004,64.24c0,51.749-42.543,93.7-95.022,93.7
		c-19.482,0-37.592-5.785-52.667-15.703c14.491,21.418,37.69,36.612,64.607,40.675L256,251l14.478-14.1
		c37.948-5.72,68.559-33.576,77.737-69.84c0.126-0.497,0.239-0.998,0.356-1.497c2.843,1.553,6.104,2.437,9.571,2.437
		c11.046,0,20-8.955,20-20C378.142,136.954,369.188,128,358.142,128z"/>
	<circle style="fill:#CE795F;" cx="153.5" cy="150.5" r="7.5"/>
</g>
<circle style="fill:#B66652;" cx="358.14" cy="148" r="7.5"/>
<g>
	<circle style="fill:#35404A;" cx="222.41" cy="150.5" r="8.398"/>
	<circle style="fill:#35404A;" cx="289.6" cy="150.5" r="8.398"/>
	<path style="fill:#35404A;" d="M266.349,150.428l-21.088,0.007c-6.586,0.115-9.85,8.117-5.172,12.796
		c8.795,8.794,23.025,8.794,31.82,0C276.72,158.421,273.031,150.428,266.349,150.428z"/>
</g>
<path style="fill:#596775;" d="M297.265,24.567c-9.518-4.81-25.803-9.067-41.244-9.067c-51.026,0-110.566,39.041-110.566,85.054
	c0,4.309,0,7.604,0,11.696l15.608,17.054c0.386,0.138,0.769,0.287,1.149,0.446l0,0c59.178,0,111.362-29.942,142.231-75.502
	C311.282,44.154,308.147,30.066,297.265,24.567z"/>
<path style="fill:#3E4954;" d="M325.419,44.648c-5.084-3.911-11.311-6.04-17.726-6.04c-1.444-6.857-5.4-11.649-10.894-14.27h-0.001
	c-3.085-1.518-6.837-2.971-11.013-4.249c-4.822,10.963-6.52,17.378-22.911,37.673c-16.629,16.786-37.273,29.22-59.779,35.993
	c-22.883,6.885-39.062,5.995-57.623,5.996c-0.021,1.375-0.016-2.354-0.016,12.499c1.598,7.613,7.646,14.214,15.608,17.054
	c0.386,0.138,0.769,0.287,1.149,0.446c47.521,0,91.42-19.465,123.046-51.966c6.533,29.719,33.007,51.965,64.689,51.966
	c0.001,0.006,0.002,0.012,0.003,0.018c1.028-0.463,2.086-0.835,3.174-1.129c7.434-2.011,12.368-9.023,12.33-16.725
	C365.305,82.302,345.452,60.059,325.419,44.648z"/>
<rect x="161.75" y="308" style="fill:#FF7C8B;" width="314.25" height="188.5"/>
<polygon style="fill:#FF5368;" points="446,308 446,466.5 161.75,466.5 161.75,496.5 476,496.5 476,308 "/>
<polygon style="fill:#87F8F4;" points="36,308 36,496.5 161.75,496.5 350.25,308 "/>
<polygon style="fill:#00D3D8;" points="191.75,466.5 36,466.5 36,496.5 161.75,496.5 "/>
<path style="fill:#FFF9EB;" d="M256,461.969c-33.083,0-60-26.917-60-60.001c0-33.083,26.917-60,60-60s60,26.917,60,60
	C316,435.053,289.083,461.969,256,461.969z"/>
<path style="fill:#E9E3D5;" d="M316,401.968c0-27.335-18.383-50.444-43.43-57.654c-6.785,11.503-5.238,26.561,4.642,36.442
	c11.698,11.697,11.698,30.73,0.001,42.427c-11.696,11.697-30.729,11.697-42.427-0.001c-9.881-9.881-24.938-11.428-36.441-4.643
	c7.211,25.048,30.319,43.431,57.654,43.431C289.083,461.969,316,435.053,316,401.968z"/>
<g>
	<path style="fill:#3E4954;" d="M264.41,418.936h-0.91V398.44c0-4.143-3.357-7.5-7.5-7.5h-8.41c-4.143,0-7.5,3.357-7.5,7.5
		s3.357,7.5,7.5,7.5h0.91v12.997h-0.91c-4.143,0-7.5,3.357-7.5,7.5s3.357,7.5,7.5,7.5H256h8.41c4.143,0,7.5-3.357,7.5-7.5
		S268.553,418.936,264.41,418.936z"/>
	<circle style="fill:#3E4954;" cx="256" cy="377.5" r="7.5"/>
</g>
<path style="fill:#35404A;" d="M504.5,315.5H7.5c-4.142,0-7.5-3.357-7.5-7.5s3.358-7.5,7.5-7.5h497c4.142,0,7.5,3.357,7.5,7.5
	S508.642,315.5,504.5,315.5z"/>
<g>
</g>
<g>
</g>
<g>
</g>
<g>
</g>
<g>
</g>
<g>
</g>
<g>
</g>
<g>
</g>
<g>
</g>
<g>
</g>
<g>
</g>
<g>
</g>
<g>
</g>
<g>
</g>
<g>
</g>
</svg>
