<svg height="512pt" viewBox="0 0 512 512.00004" width="512pt" xmlns="http://www.w3.org/2000/svg"><path d="m511.96875 256.015625c0 141.375-114.609375 255.984375-255.984375 255.984375s-255.984375-114.609375-255.984375-255.984375c0-16.121094 1.492188-31.898437 4.347656-47.195313 22.140625-118.828124 126.382813-208.789062 251.636719-208.789062s229.496094 89.960938 251.636719 208.789062c2.851562 15.296876 4.347656 31.074219 4.347656 47.195313zm0 0" fill="#96d6d4"/><path d="m508.25 212.339844h-504.53125c.199219-1.179688.410156-2.347656.628906-3.519532 7.25-38.878906 23.289063-74.675781 45.972656-105.234374h411.328126c22.683593 30.558593 38.722656 66.355468 45.972656 105.234374.21875 1.171876.429687 2.339844.628906 3.519532zm0 0" fill="#f73e3e"/><path d="m511.96875 256.015625c0 141.375-114.609375 255.984375-255.984375 255.984375-131.105469 0-239.183594-98.558594-254.199219-225.621094-1.179687-9.957031-1.785156-20.09375-1.785156-30.363281 0-12.222656.855469-24.25 2.519531-36.015625.53125-3.75 1.136719-7.480469 1.828125-11.179688h503.273438c2.851562 15.296876 4.347656 31.074219 4.347656 47.195313zm0 0" fill="#ab5816"/><path d="m146.382812 220v66.378906h-144.597656c-1.179687-9.957031-1.785156-20.09375-1.785156-30.363281 0-12.222656.855469-24.25 2.519531-36.015625zm0 0" fill="#8c3e09"/><path d="m244.5625 210.089844c-4.460938-9.835938-.375-24.585938 10.289062-24.585938 0 0-.132812-14.296875 17.476563-14.296875 0 0 7.714844-12.253906 25.867187 0 18.15625 12.253907-17.246093 31.773438-17.246093 31.773438l-12.707031 12.707031" fill="#8c3e09"/><path d="m86.824219 134.503906v65.167969h-72.671875c-4.925782 0-8.925782-3.996094-8.925782-8.925781v-47.316406c0-4.929688 3.996094-8.925782 8.925782-8.925782zm0 0" fill="#e5e5e5"/><path d="m30.800781 134.507812h-16.644531c-4.929688 0-8.925781 3.996094-8.925781 8.925782v47.316406c0 4.925781 3.996093 8.921875 8.925781 8.921875h16.644531zm0 0" fill="#cbcbcb"/><path d="m91.730469 177.957031c0 2.4375-1.980469 4.414063-4.417969 4.414063h-82.082031v-8.832032h82.082031c2.4375 0 4.417969 1.972657 4.417969 4.417969zm0 0" fill="#cbcbcb"/><path d="m91.730469 156.226562c0 2.4375-1.980469 4.417969-4.417969 4.417969h-82.082031v-8.835937h82.082031c2.4375 0 4.417969 1.980468 4.417969 4.417968zm0 0" fill="#cbcbcb"/><path d="m74.925781 190.84375h60.636719v30.320312h-60.636719zm0 0" fill="#ff931f"/><path d="m235.777344 1.839844-6.894532 39.117187-13.648437 12.871094-52.167969 49.183594-5.433594 5.128906-71.582031-18.222656 29.519531-17.363281 99.664063-58.636719zm0 0" fill="#ffbb16"/><path d="m235.773438 1.839844 19.035156 14.667968-25.925782 24.449219-13.648437-27.035156zm0 0" fill="#ff931f"/><path d="m175.015625 212.335938h-131.503906c-21.140625 0-38.28125 17.140624-38.28125 38.28125 0 21.140624 17.140625 38.28125 38.28125 38.28125h131.503906c21.140625 0 38.28125-17.140626 38.28125-38.28125 0-21.140626-17.140625-38.28125-38.28125-38.28125zm0 0" fill="#757177"/><path d="m43.511719 272.578125c-12.109375 0-21.960938-9.851563-21.960938-21.960937 0-12.109376 9.851563-21.960938 21.960938-21.960938h131.503906c12.109375 0 21.960937 9.851562 21.960937 21.960938 0 12.109374-9.851562 21.960937-21.960937 21.960937zm0 0" fill="#757177"/><path d="m65.472656 250.617188c0 12.128906-9.832031 21.960937-21.960937 21.960937-12.128907 0-21.960938-9.832031-21.960938-21.960937 0-12.128907 9.832031-21.960938 21.960938-21.960938 12.128906 0 21.960937 9.832031 21.960937 21.960938zm0 0" fill="#cbcbcb"/><path d="m196.976562 250.617188c0 12.128906-9.832031 21.960937-21.960937 21.960937s-21.960937-9.832031-21.960937-21.960937c0-12.128907 9.832031-21.960938 21.960937-21.960938s21.960937 9.832031 21.960937 21.960938zm0 0" fill="#cbcbcb"/><g fill="#2f373b"><path d="m182.96875 250.617188c0 4.390624-3.5625 7.949218-7.953125 7.949218s-7.949219-3.558594-7.949219-7.949218c0-4.390626 3.558594-7.953126 7.949219-7.953126s7.953125 3.5625 7.953125 7.953126zm0 0"/><path d="m51.460938 250.617188c0 4.390624-3.558594 7.949218-7.949219 7.949218s-7.953125-3.558594-7.953125-7.949218c0-4.390626 3.5625-7.953126 7.953125-7.953126s7.949219 3.5625 7.949219 7.953126zm0 0"/><path d="m43.511719 276.996094c-2.441407 0-4.417969-1.976563-4.417969-4.417969 0-2.4375 1.976562-4.417969 4.417969-4.417969 9.671875 0 17.542969-7.867187 17.542969-17.542968 0-9.675782-7.871094-17.542969-17.542969-17.542969-2.441407 0-4.417969-1.980469-4.417969-4.417969 0-2.441406 1.976562-4.417969 4.417969-4.417969 14.542969 0 26.378906 11.832031 26.378906 26.378907 0 14.546874-11.835937 26.378906-26.378906 26.378906zm0 0"/><path d="m175.015625 276.996094c-14.542969 0-26.378906-11.832032-26.378906-26.378906 0-14.546876 11.835937-26.378907 26.378906-26.378907 2.441406 0 4.417969 1.976563 4.417969 4.417969 0 2.4375-1.976563 4.417969-4.417969 4.417969-9.671875 0-17.542969 7.867187-17.542969 17.542969 0 9.675781 7.871094 17.542968 17.542969 17.542968 2.441406 0 4.417969 1.980469 4.417969 4.417969 0 2.441406-1.976563 4.417969-4.417969 4.417969zm0 0"/><path d="m74.175781 241.1875c-2.441406 0-4.417969-1.976562-4.417969-4.417969v-8.113281c0-2.441406 1.976563-4.417969 4.417969-4.417969 2.4375 0 4.414063 1.976563 4.414063 4.417969v8.113281c0 2.441407-1.976563 4.417969-4.414063 4.417969zm0 0"/><path d="m97.566406 241.1875c-2.441406 0-4.417968-1.976562-4.417968-4.417969v-8.113281c0-2.441406 1.976562-4.417969 4.417968-4.417969s4.417969 1.976563 4.417969 4.417969v8.113281c0 2.441407-1.976563 4.417969-4.417969 4.417969zm0 0"/><path d="m120.960938 241.1875c-2.441407 0-4.417969-1.976562-4.417969-4.417969v-8.113281c0-2.441406 1.976562-4.417969 4.417969-4.417969 2.4375 0 4.417968 1.976563 4.417968 4.417969v8.113281c0 2.441407-1.980468 4.417969-4.417968 4.417969zm0 0"/><path d="m144.355469 241.1875c-2.441407 0-4.417969-1.976562-4.417969-4.417969v-8.113281c0-2.441406 1.976562-4.417969 4.417969-4.417969 2.4375 0 4.417969 1.976563 4.417969 4.417969v8.113281c0 2.441407-1.980469 4.417969-4.417969 4.417969zm0 0"/><path d="m74.175781 276.996094c-2.441406 0-4.417969-1.976563-4.417969-4.417969v-8.113281c0-2.441406 1.976563-4.417969 4.417969-4.417969 2.4375 0 4.414063 1.976563 4.414063 4.417969v8.113281c0 2.441406-1.976563 4.417969-4.414063 4.417969zm0 0"/><path d="m97.566406 276.996094c-2.441406 0-4.417968-1.976563-4.417968-4.417969v-8.113281c0-2.441406 1.976562-4.417969 4.417968-4.417969s4.417969 1.976563 4.417969 4.417969v8.113281c0 2.441406-1.976563 4.417969-4.417969 4.417969zm0 0"/><path d="m120.960938 276.996094c-2.441407 0-4.417969-1.976563-4.417969-4.417969v-8.113281c0-2.441406 1.976562-4.417969 4.417969-4.417969 2.4375 0 4.417968 1.976563 4.417968 4.417969v8.113281c0 2.441406-1.980468 4.417969-4.417968 4.417969zm0 0"/><path d="m144.355469 276.996094c-2.441407 0-4.417969-1.976563-4.417969-4.417969v-8.113281c0-2.441406 1.976562-4.417969 4.417969-4.417969 2.4375 0 4.417969 1.976563 4.417969 4.417969v8.113281c0 2.441406-1.980469 4.417969-4.417969 4.417969zm0 0"/></g><path d="m163.066406 103.011719-5.433594 5.128906-71.582031-18.222656 29.519531-17.363281h24.917969c5.507813 0 10.492188 3.238281 12.726563 8.261718zm0 0" fill="#ff931f"/><path d="m140.488281 89.914062h-62.40625c-4.242187 0-7.683593 3.441407-7.683593 7.683594v102.074219h79.40625c11.535156 0 20.882812-9.347656 20.882812-20.882813v-32.855468c0-5.5625-1.167969-11.058594-3.425781-16.144532l-14.050781-31.609374c-2.234376-5.027344-7.21875-8.265626-12.722657-8.265626zm0 0" fill="#ffbb16"/><path d="m87.101562 89.914062h-9.019531c-4.242187 0-7.6875 3.441407-7.6875 7.6875v102.074219h9.019531v-102.074219c0-4.246093 3.449219-7.6875 7.6875-7.6875zm0 0" fill="#ff931f"/><path d="m134.628906 141.25h-34.613281c-6.601563 0-11.949219-5.347656-11.949219-11.949219v-9.765625c0-6.601562 5.347656-11.949218 11.949219-11.949218h30.269531c4.722656 0 9.003906 2.78125 10.921875 7.09375l4.339844 9.765624c3.515625 7.902344-2.269531 16.804688-10.917969 16.804688zm0 0" fill="#2f373b"/><path d="m292.757812 138.609375-63.082031-116.886719c-3.859375-7.15625-1.1875-16.09375 5.964844-19.953125 7.160156-3.863281 16.09375-1.1875 19.953125 5.964844l63.082031 116.890625" fill="#ffbb16"/><path d="m304.652344 154.355469-39.015625 44.667969h-.003907c-8.6875-1.324219-17.226562 3.160156-21.070312 11.0625l-3.652344 7.507812 38.6875 5.894531c20.566406 3.136719 39.777344-10.996093 42.914063-31.5625l5.1875-34.058593zm0 0" fill="#ffbb16"/><path d="m272.839844 205.621094-.003906-.003906c-8.691407-1.324219-17.222657 3.160156-21.070313 11.0625l-1.164063 2.394531-9.6875-1.476563 3.648438-7.507812c3.847656-7.90625 12.382812-12.386719 21.074219-11.066406v.003906l39.015625-44.667969 11.902344 1.808594zm0 0" fill="#ff931f"/><path d="m325.488281 126.976562c-11.511719-6.082031-25.773437-1.675781-31.851562 9.835938-6.082031 11.511719-1.675781 25.773438 9.835937 31.851562 11.511719 6.082032 25.773438 1.675782 31.851563-9.835937 6.082031-11.511719 1.675781-25.773437-9.835938-31.851563zm0 0" fill="#2f373b"/><path d="m318.671875 139.878906c-4.382813-2.316406-9.816406-.636718-12.132813 3.746094-2.316406 4.386719-.636718 9.820312 3.746094 12.136719 4.386719 2.316406 9.820313.636719 12.136719-3.75 2.316406-4.382813.636719-9.816407-3.75-12.132813zm0 0" fill="#e5e5e5"/><path d="m245.816406 20.617188c-1.527344.824218-3.429687.660156-4.800781-.394532-1.578125-1.21875-2.152344-3.4375-1.34375-5.261718.714844-1.617188 2.367187-2.671876 4.132813-2.644532 1.957031.03125 3.714843 1.433594 4.191406 3.328125.488281 1.941407-.414063 4.019531-2.179688 4.972657zm0 0" fill="#2e5968"/><path d="m175.015625 276.996094h-131.503906c-14.546875 0-26.378907-11.832032-26.378907-26.378906 0-14.542969 11.832032-26.378907 26.378907-26.378907h131.503906c14.546875 0 26.378906 11.832031 26.378906 26.378907 0 14.546874-11.832031 26.378906-26.378906 26.378906zm-131.503906-43.921875c-9.675781 0-17.542969 7.871093-17.542969 17.542969 0 9.675781 7.867188 17.542968 17.542969 17.542968h131.503906c9.671875 0 17.542969-7.867187 17.542969-17.542968 0-9.671876-7.871094-17.542969-17.542969-17.542969zm0 0" fill="#2f373b"/><path d="m423.460938 260.84375c0 6.089844-6.320313 11.753906-17.136719 16.433594-17.875 7.753906-48.050781 12.839844-82.257813 12.839844-34.207031 0-64.382812-5.085938-82.261718-12.839844-10.8125-4.679688-17.132813-10.34375-17.132813-16.433594 0-16.164062 44.5-29.277344 99.394531-29.277344 54.894532 0 99.394532 13.113282 99.394532 29.277344zm0 0" fill="#8c3e09"/><path d="m406.324219 277.277344c-17.875 7.753906-48.050781 12.839844-82.257813 12.839844-34.207031 0-64.382812-5.085938-82.261718-12.839844 17.878906-7.75 48.054687-12.839844 82.261718-12.839844 34.207032 0 64.382813 5.089844 82.257813 12.839844zm0 0" fill="#702e01"/><path d="m415.972656 224.421875c0-3.195313-7.464844-11.011719-16.679687-11.011719-9.210938 0-16.679688 7.816406-16.679688 11.011719 0 3.199219 7.46875 5.789063 16.679688 5.789063 9.214843 0 16.679687-2.589844 16.679687-5.789063zm0 0" fill="#8c3e09"/><path d="m427.886719 242.292969c0-3.199219-7.464844-11.011719-16.679688-11.011719-9.210937 0-16.679687 7.8125-16.679687 11.011719 0 3.195312 7.46875 5.785156 16.679687 5.785156 9.214844 0 16.679688-2.589844 16.679688-5.785156zm0 0" fill="#8c3e09"/><path d="m420.511719 283.3125c0-3.195312-7.46875-11.011719-16.679688-11.011719-9.214843 0-16.679687 7.816407-16.679687 11.011719s7.464844 5.785156 16.679687 5.785156c9.210938 0 16.679688-2.589844 16.679688-5.785156zm0 0" fill="#8c3e09"/><path d="m219.222656 304.074219c0-3.195313-7.464844-11.007813-16.679687-11.007813-9.210938 0-16.679688 7.8125-16.679688 11.007813 0 3.199219 7.46875 5.789062 16.679688 5.789062 9.214843 0 16.679687-2.589843 16.679687-5.789062zm0 0" fill="#8c3e09"/><path d="m361.851562 458.8125c0-6.351562-14.847656-21.953125-33.160156-21.953125s-33.160156 15.601563-33.160156 21.953125c0 6.355469 14.847656 11.507812 33.160156 11.507812 18.3125-.003906 33.160156-5.152343 33.160156-11.507812zm0 0" fill="#8c3e09"/><path d="m259.730469 240.082031c0-3.195312-7.464844-11.011719-16.679688-11.011719-9.210937 0-16.679687 7.816407-16.679687 11.011719 0 3.195313 7.46875 5.785157 16.679687 5.785157 9.214844 0 16.679688-2.589844 16.679688-5.785157zm0 0" fill="#8c3e09"/><path d="m183.878906 352.652344c-1.742187-2.394532-4.210937-4.242188-7.09375-5.191406 3.574219-2.738282 5.683594-7 5.683594-11.503907 0-1.578125-.238281-3.167969-.78125-4.722656-2.050781-6.019531-7.679688-9.800781-13.699219-9.800781h-.136719c1.589844-2.402344 2.402344-5.203125 2.402344-8.035156 0-3.113282-.980468-6.257813-3.050781-8.914063-2.851563-3.667969-7.125-5.578125-11.4375-5.578125-1.621094 0-3.242187.28125-4.796875.816406.300781-1.203125.460938-2.4375.460938-3.660156 0-4.710938-2.300782-9.371094-6.5625-12.148438-2.445313-1.601562-5.203126-2.375-7.941407-2.375-3.21875 0-6.414062 1.078126-8.984375 3.117188-.222656-3.019531-1.410156-5.875-3.304687-8.171875-1.898438-2.289063-4.5-4.011719-7.617188-4.796875-1.199219-.3125-2.390625-.449219-3.582031-.449219-4.929688 0-9.527344 2.539063-12.183594 6.65625-2.234375-5.222656-7.429687-8.765625-13.320312-8.765625-.386719 0-.773438.011719-1.171875.042969-3.195313.257813-6.070313 1.542969-8.304688 3.488281-2.246093 1.941406-3.886719 4.566406-4.609375 7.5-2.757812-3.050781-6.695312-4.773437-10.78125-4.773437-1.945312 0-3.917968.386719-5.808594 1.210937-5.433593 2.394532-8.671874 7.722656-8.671874 13.28125 0 .449219.019531.886719.0625 1.328125-2.175782-1.203125-4.597657-1.796875-7.03125-1.796875-3.5 0-7.023438 1.261719-9.792969 3.824219-3.113281 2.859375-4.691407 6.769531-4.691407 10.6875 0 2.003906.417969 4.023437 1.253907 5.890625-.835938-.144531-1.671875-.21875-2.507813-.21875-5.128906 0-10.121094 2.75-12.746094 7.585938-1.191406 2.207031-1.765624 4.566406-1.765624 6.90625 0 3.648437 1.378906 7.210937 3.910156 9.90625-1.003906.15625-1.988282.429687-2.925782.78125 4.304688 13.355468 9.683594 26.226562 16.027344 38.515624h152.054688c1.324218-.910156 2.476562-2.039062 3.425781-3.335937 1.753906-2.390625 2.8125-5.347656 2.8125-8.535156v-.207031c0-3.207032-1.035156-6.15625-2.792969-8.558594zm0 0" fill="#8c3e09"/><path d="m87.945312 269.128906c-.386718 0-.785156.011719-1.183593.042969-3.195313.257813-6.070313 1.523437-8.304688 3.488281-2.246093 1.941406-3.886719 4.566406-4.609375 7.5-2.757812-3.050781-6.695312-4.773437-10.78125-4.773437-1.921875 0-3.917968.386719-5.808594 1.210937-5.433593 2.394532-8.671874 7.703125-8.671874 13.300782 0 .429687.019531.867187.0625 1.308593-2.175782-1.203125-4.597657-1.796875-7.023438-1.796875-3.5 0-7.007812 1.261719-9.800781 3.824219-3.113281 2.851563-4.691407 6.769531-4.691407 10.6875 0 2.003906.417969 4.023437 1.253907 5.890625-.835938-.144531-1.671875-.21875-2.507813-.21875-5.128906 0-10.113281 2.75-12.734375 7.585938-1.203125 2.207031-1.777343 4.566406-1.777343 6.90625 0 3.648437 1.378906 7.210937 3.910156 9.90625-1.015625.15625-1.996094.429687-2.925782.78125v.011718c4.304688 13.355469 9.683594 26.214844 16.027344 38.503906h4.09375c.230469-5.152343 3.207032-9.78125 7.691406-12.152343-4.660156-2.488281-7.679687-7.386719-7.679687-12.789063 0-.792968.0625-1.597656.199219-2.402344.53125-3.167968 2.035156-5.902343 4.167968-7.992187 2.132813-2.082031 4.867188-3.480469 7.867188-3.960937-2.527344-2.695313-3.90625-6.257813-3.90625-9.90625 0-2.320313.574219-4.699219 1.773438-6.90625 2.625-4.835938 7.609374-7.585938 12.738281-7.585938.835937 0 1.671875.074219 2.496093.21875-.824218-1.867188-1.242187-3.886719-1.242187-5.890625 0-3.917969 1.566406-7.835937 4.691406-10.6875 2.789063-2.5625 6.300781-3.824219 9.800781-3.824219 2.421876 0 4.847657.59375 7.019532 1.796875-.039063-.441406-.0625-.878906-.0625-1.308593 0-5.578126 3.238281-10.90625 8.683594-13.300782 2.457031-1.074218 4.921874-1.585937 7.15625-1.585937 3.082031 0 5.757812.992187 7.410156 2.882812-2.257813-5.203125-7.441406-8.765625-13.332032-8.765625zm0 0" fill="#702e01"/><path d="m464.84375 199.066406c-1.121094-1.539062-2.710938-2.726562-4.5625-3.34375 2.300781-1.757812 3.660156-4.503906 3.660156-7.402344 0-1.011718-.160156-2.035156-.507812-3.035156-1.316406-3.871094-4.941406-6.300781-8.808594-6.300781h-.089844c1.019532-1.546875 1.546875-3.355469 1.546875-5.171875 0-2.003906-.636719-4.027344-1.964843-5.734375-1.835938-2.359375-4.582032-3.589844-7.363282-3.589844-1.039062 0-2.082031.175781-3.082031.523438.195313-.773438.296875-1.566407.296875-2.351563 0-3.035156-1.480469-6.03125-4.21875-7.816406-1.578125-1.035156-3.351562-1.527344-5.109375-1.527344-2.074219 0-4.128906.691406-5.785156 2.003906-.136719-1.945312-.902344-3.78125-2.121094-5.261718-1.222656-1.464844-2.898437-2.578125-4.902344-3.082032-.773437-.199218-1.539062-.289062-2.300781-.289062-3.175781 0-6.132812 1.636719-7.839844 4.285156-1.4375-3.363281-4.78125-5.644531-8.574218-5.644531-.246094 0-.496094.011719-.753907.03125-2.054687.167969-3.898437.992187-5.335937 2.242187-1.449219 1.25-2.5 2.9375-2.96875 4.832032-1.773438-1.964844-4.304688-3.078125-6.933594-3.078125-1.25 0-2.519531.25-3.742188.785156-3.492187 1.539063-5.574218 4.960937-5.574218 8.542969 0 .285156.007812.566406.039062.851562-1.398437-.773437-2.957031-1.160156-4.523437-1.160156-2.253907 0-4.515625.816406-6.300781 2.460938-2.003907 1.847656-3.015626 4.355468-3.015626 6.875 0 1.289062.265626 2.589843.800782 3.792968-.535156-.089844-1.070313-.140625-1.605469-.140625-3.304687 0-6.519531 1.765625-8.207031 4.882813-.761719 1.417968-1.128906 2.9375-1.128906 4.445312 0 2.339844.882812 4.632813 2.507812 6.371094-1.933594.304688-3.699219 1.210938-5.070312 2.546875-1.367188 1.339844-2.339844 3.105469-2.679688 5.140625-.085938.515625-.125 1.03125-.125 1.539062 0 3.472657 1.941406 6.636719 4.949219 8.234376-2.886719 1.527343-4.8125 4.496093-4.960938 7.820312h114.144531c.851563-.585938 1.585938-1.3125 2.203126-2.144531 1.128906-1.539063 1.804687-3.441407 1.804687-5.496094v-.128906c0-2.066407-.664063-3.960938-1.796875-5.507813zm0 0" fill="#8c3e09"/><path d="m403.128906 145.328125c-.25 0-.507812.011719-.765625.03125-2.054687.167969-3.898437.980469-5.335937 2.242187-1.449219 1.25-2.5 2.9375-2.96875 4.832032-1.773438-1.964844-4.304688-3.078125-6.933594-3.078125-1.242188 0-2.519531.25-3.742188.785156-3.492187 1.539063-5.574218 4.953125-5.574218 8.554687 0 .277344.007812.554688.039062.839844-1.398437-.773437-2.957031-1.160156-4.515625-1.160156-2.25 0-4.515625.816406-6.308593 2.460938-2.003907 1.835937-3.019532 4.355468-3.019532 6.875 0 1.289062.269532 2.589843.804688 3.792968-.535156-.089844-1.070313-.140625-1.605469-.140625-3.304687 0-6.511719 1.765625-8.195313 4.882813-.777343 1.417968-1.140624 2.9375-1.140624 4.445312 0 2.339844.882812 4.632813 2.507812 6.371094-1.921875.304688-3.699219 1.210938-5.058594 2.546875-1.367187 1.339844-2.34375 3.105469-2.679687 5.140625-.089844.515625-.128907 1.03125-.128907 1.546875 0 3.472656 1.9375 6.628906 4.941407 8.226563-2.886719 1.527343-4.800781 4.503906-4.949219 7.816406h18.941406c.148438-3.3125 2.0625-6.289063 4.949219-7.816406-2.996094-1.597657-4.941406-4.753907-4.941406-8.226563 0-.515625.039062-1.03125.128906-1.546875.339844-2.035156 1.3125-3.800781 2.679687-5.140625 1.371094-1.335937 3.136719-2.242187 5.058594-2.546875-1.625-1.738281-2.507812-4.03125-2.507812-6.371094 0-1.5.367187-3.027344 1.140625-4.445312 1.683593-3.117188 4.890625-4.882813 8.195312-4.882813.535157 0 1.070313.050781 1.605469.140625-.535156-1.199218-.800781-2.5-.800781-3.792968 0-2.519532 1.011719-5.039063 3.015625-6.875 1.796875-1.644532 4.058594-2.460938 6.308594-2.460938 1.558593 0 3.117187.386719 4.515624 1.160156-.027343-.285156-.039062-.5625-.039062-.839844 0-3.59375 2.082031-7.015624 5.585938-8.554687 1.578124-.695313 3.164062-1.023437 4.601562-1.023437 1.984375 0 3.703125.636718 4.765625 1.855468-1.449219-3.351562-4.785156-5.644531-8.574219-5.644531zm0 0" fill="#702e01"/><path d="m468.054688 361.386719v38.042969c-.992188 1.460937-1.996094 2.914062-3.019532 4.355468-5.140625 7.261719-10.65625 14.242188-16.507812 20.917969h-192.878906v-63.316406zm0 0" fill="#ccc"/><path d="m468.054688 393.453125v5.976563c-.992188 1.460937-1.996094 2.914062-3.019532 4.355468h-209.386718v-10.332031zm0 0" fill="#b3b3b3"/><path d="m255.648438 309.863281h212.40625v63.3125h-212.40625zm0 0" fill="#e6e6e6"/><path d="m137.1875 433.3125h75.230469v22.027344h-75.230469zm0 0" fill="#d81d1d"/><path d="m137.1875 415.386719h75.230469v22.027343h-75.230469zm0 0" fill="#f73e3e"/><path d="m199.417969 462.753906h37.101562v22.027344h-37.101562zm0 0" fill="#d81d1d"/><path d="m199.417969 422.46875h37.101562v44.386719h-37.101562zm0 0" fill="#f73e3e"/><path d="m102.574219 443.519531 68.820312-30.390625 8.898438 20.148438-68.820313 30.394531zm0 0" fill="#d81d1d"/><path d="m95.332031 427.121094 68.820313-30.390625 8.898437 20.148437-68.820312 30.394532zm0 0" fill="#f73e3e"/><path d="m479.628906 286.886719c0 4.042969-3.277344 7.320312-7.320312 7.320312-4.039063 0-7.316406-3.277343-7.316406-7.320312s3.277343-7.320313 7.316406-7.320313c4.042968 0 7.320312 3.277344 7.320312 7.320313zm0 0" fill="#8c3e09"/><path d="m496.136719 305.097656c0 4.042969-3.273438 7.320313-7.316407 7.320313-4.042968 0-7.320312-3.277344-7.320312-7.320313 0-4.042968 3.277344-7.320312 7.320312-7.320312 4.042969 0 7.316407 3.277344 7.316407 7.320312zm0 0" fill="#8c3e09"/><path d="m502.820312 284.667969c0 4.042969-3.277343 7.320312-7.316406 7.320312-4.042968 0-7.320312-3.277343-7.320312-7.320312s3.277344-7.320313 7.320312-7.320313c4.039063 0 7.316406 3.277344 7.316406 7.320313zm0 0" fill="#8c3e09"/><path d="m276.75 358.371094c0 2.535156-2.054688 4.59375-4.59375 4.59375s-4.59375-2.058594-4.59375-4.59375c0-2.539063 2.054688-4.597656 4.59375-4.597656s4.59375 2.058593 4.59375 4.597656zm0 0" fill="#b3b3b3"/><path d="m272.351562 343.949219c0 2.539062-2.054687 4.597656-4.59375 4.597656-2.539062 0-4.59375-2.058594-4.59375-4.597656 0-2.535157 2.054688-4.59375 4.59375-4.59375 2.539063 0 4.59375 2.058593 4.59375 4.59375zm0 0" fill="#b3b3b3"/><path d="m286.382812 347.757812c0 2.539063-2.054687 4.597657-4.59375 4.597657-2.539062 0-4.59375-2.058594-4.59375-4.597657 0-2.535156 2.054688-4.59375 4.59375-4.59375 2.539063 0 4.59375 2.058594 4.59375 4.59375zm0 0" fill="#b3b3b3"/><path d="m90.554688 151.238281h26.550781v7.488281h-26.550781zm0 0" fill="#ff931f"/></svg>