<svg height="472pt" viewBox="-3 0 471 472" width="472pt" xmlns="http://www.w3.org/2000/svg"><path d="m408.5 48c26.507812 0 48 21.492188 48 48v120c-26.507812 0-48-21.492188-48-48zm0 0" fill="#f98500"/><path d="m424.5 256h-40c-4.417969 0-8-3.582031-8-8v-39.519531h-64v39.519531c0 4.417969-3.582031 8-8 8h-40c-22.089844 0-40 17.910156-40 40v168h240v-168c0-22.089844-17.910156-40-40-40zm0 0" fill="#fec9a3"/><path d="m424.5 256h-32l-48 136-48-136h-32c-22.089844 0-40 17.910156-40 40v168h240v-168c0-22.089844-17.910156-40-40-40zm0 0" fill="#348fd9"/><path d="m224.5 452.105469v11.894531h240v-165.601562c-71.199219 100.722656-195.902344 141.875-240 153.707031zm0 0" fill="#3086cd"/><path d="m296.5 256-24 32 32 16-16 16 56 72zm0 0" fill="#4db7e5"/><path d="m392.5 256 24 32-32 16 16 16-56 72zm0 0" fill="#4db7e5"/><path d="m336.5 384h16v80h-16zm0 0" fill="#2a71ad"/><path d="m304.5 376h16v16h-16zm0 0" fill="#2a71ad"/><path d="m304.5 424h16v16h-16zm0 0" fill="#2a71ad"/><path d="m344.5 384v8l25.40625-72h-50.8125l25.40625 72zm0 0" fill="#f35244"/><path d="m32.5 176h48l48 32-8-32h40c17.671875 0 32-14.328125 32-32v-80c0-17.671875-14.328125-32-32-32h-128c-17.671875 0-32 14.328125-32 32v80c0 17.671875 14.328125 32 32 32zm0 0" fill="#348fd9"/><path d="m179.269531 38.183594c-45.730469 67.625-120.738281 110.542968-165.601562 131.585937 5.449219 4.035157 12.050781 6.21875 18.832031 6.230469h48l48 32-8-32h40c17.671875 0 32-14.328125 32-32v-80c-.011719-10.230469-4.933594-19.832031-13.230469-25.816406zm0 0" fill="#3086cd"/><g fill="#2a71ad"><path d="m136.5 64h32v16h-32zm0 0"/><path d="m24.5 64h96v16h-96zm0 0"/><path d="m24.5 128h144v16h-144zm0 0"/><path d="m24.5 96h144v16h-144zm0 0"/></g><path d="m129.621094 400h70.878906c13.253906 0 24-10.746094 24-24v-112c0-13.253906-10.746094-24-24-24h-176c-13.253906 0-24 10.746094-24 24v112c0 13.253906 10.746094 24 24 24h42.320312" fill="#e0e0de"/><path d="m24.5 264h32v16h-32zm0 0" fill="#bfbfbd"/><path d="m72.5 264h32v16h-32zm0 0" fill="#bfbfbd"/><path d="m120.5 264h32v16h-32zm0 0" fill="#bfbfbd"/><path d="m168.5 264h32v16h-32zm0 0" fill="#bfbfbd"/><path d="m.898438 379.953125c1.886718 11.5625 11.882812 20.054687 23.601562 20.046875h176c13.253906 0 24-10.746094 24-24v-112c-.007812-1.527344-.160156-3.046875-.457031-4.542969-48.984375 63.632813-159.191407 102.480469-223.144531 120.496094zm0 0" fill="#d6d6d4"/><path d="m121.644531 456 14.855469-104h-56l-32 104v16h112v-16zm0 0" fill="#e0e0de"/><path d="m279.78125 464h-16v-53.175781c-20.628906-25.777344-20.40625-62.472657.527344-88l12.230468 10.304687c-16.566406 20.46875-15.988281 49.894532 1.367188 69.695313 1.214844 1.453125 1.878906 3.285156 1.875 5.175781zm0 0" fill="#2a71ad"/><path d="m409.1875 464h16v-53.175781c20.632812-25.773438 20.414062-62.472657-.519531-88l-12.238281 10.304687c16.570312 20.464844 15.996093 49.890625-1.363282 69.695313-1.210937 1.441406-1.878906 3.265625-1.878906 5.152343zm0 0" fill="#2a71ad"/><path d="m376.5 368h64v32h-64zm0 0" fill="#ffb531"/><path d="m376.5 384h64v16h-64zm0 0" fill="#ffa912"/><path d="m376.5 224.425781v-15.945312h-64v15.945312c20.136719 10.101563 43.863281 10.101563 64 0zm0 0" fill="#feb784"/><path d="m274.253906 229-32-40c-1.136718-1.417969-1.753906-3.183594-1.753906-5v-48h16v45.191406l30.246094 37.808594zm0 0" fill="#d6d6d4"/><path d="m248.5 104c-8.824219.027344-15.972656 7.175781-16 16v16c.027344 8.824219 7.175781 15.972656 16 16h32v-48zm0 0" fill="#e0e0de"/><path d="m248.5 152h32v-29.113281c-13.40625 11.203125-37.0625 16.730469-46.777344 19.203125 2.480469 5.976562 8.304688 9.882812 14.777344 9.910156zm0 0" fill="#d6d6d4"/><path d="m440.5 152h-32v-48h32c8.835938 0 16 7.164062 16 16v16c0 8.835938-7.164062 16-16 16zm0 0" fill="#e0e0de"/><path d="m450.515625 107.617188c-10.015625 20.382812-26.015625 28.382812-42.015625 26.96875v17.414062h32c8.835938 0 16-7.164062 16-16v-16c-.011719-4.820312-2.214844-9.378906-5.984375-12.382812zm0 0" fill="#d6d6d4"/><path d="m344.5 216c-39.765625 0-72-32.234375-72-72v-68.921875c24-32 112-40 144 0v68.921875c0 39.765625-32.234375 72-72 72zm0 0" fill="#fec9a3"/><path d="m330.101562 48.96875c20.820313 1.359375 40.3125 10.714844 54.398438 26.109375v68.921875c-.023438 33.582031-23.257812 62.6875-56 70.152344 21.359375 4.941406 43.808594-.148438 60.949219-13.8125 17.144531-13.667969 27.105469-34.414063 27.050781-56.339844v-68.921875c-18.121094-22.644531-54.183594-29.886719-86.398438-26.109375zm0 0" fill="#fec093"/><path d="m380.5 128c-6.628906 0-12-5.371094-12-12s5.371094-12 12-12 12 5.371094 12 12-5.371094 12-12 12zm0 0" fill="#7a432a"/><path d="m344.5 176c-13.253906 0-24-10.746094-24-24h16c0 4.417969 3.582031 8 8 8s8-3.582031 8-8h16c0 13.253906-10.746094 24-24 24zm0 0" fill="#f7a468"/><path d="m272.5 75.078125v57.386719c38.601562-8.175782 73.734375-13.878906 102.777344-37.648438l18.109375-14.816406 23.113281 23.640625v-28.5625c-32-40-120-32-144 0zm0 0" fill="#fec093"/><path d="m308.5 128c-6.628906 0-12-5.371094-12-12s5.371094-12 12-12 12 5.371094 12 12-5.371094 12-12 12zm0 0" fill="#7a432a"/><path d="m336.5 0c-44.183594 0-80 35.816406-80 80v40c44.886719-10.496094 85.769531-14.175781 118.777344-41.183594l18.109375-14.816406 39.113281 40v-24c0-44.183594-35.816406-80-80-80zm0 0" fill="#f98500"/></svg>