<svg height="409pt" viewBox="-10 0 409 409.6" width="409pt" xmlns="http://www.w3.org/2000/svg"><path d="m314.328125 191.148438c0 86.714843-70.296875 157.011718-157.015625 157.011718-86.714844 0-157.011719-70.296875-157.011719-157.011718 0-86.71875 70.296875-157.015626 157.011719-157.015626 86.71875 0 157.015625 70.296876 157.015625 157.015626zm0 0" fill="#efefd2"/><path d="m314.328125 409.601562h-27.308594c-3.773437 0-6.828125-3.054687-6.828125-6.828124v-75.09375c0-3.773438 3.054688-6.828126 6.828125-6.828126h27.308594c3.773437 0 6.824219 3.054688 6.824219 6.828126v75.09375c0 3.773437-3.050782 6.828124-6.824219 6.828124zm-20.480469-13.65625h13.652344v-61.4375h-13.652344zm0 0" fill="#4c241d"/><path d="m123.179688 409.601562h-27.304688c-3.773438 0-6.828125-3.054687-6.828125-6.828124v-75.09375c0-3.773438 3.054687-6.828126 6.828125-6.828126h27.304688c3.773437 0 6.828124 3.054688 6.828124 6.828126v75.09375c0 3.773437-3.054687 6.828124-6.828124 6.828124zm-20.480469-13.65625h13.652343v-61.4375h-13.652343zm0 0" fill="#4c241d"/><path d="m267.066406 279.894531h-123.929687c-26.101563 0-47.261719 21.15625-47.261719 47.261719l27.308594 21.003906v54.613282h163.839844v-54.613282l27.304687-21.003906c0-26.105469-21.160156-47.261719-47.261719-47.261719zm0 0" fill="#9dc1e4"/><path d="m287.019531 409.601562h-163.839843c-3.773438 0-6.828126-3.054687-6.828126-6.828124v-51.253907l-24.640624-18.953125c-1.679688-1.292968-2.664063-3.292968-2.664063-5.410156 0-29.828125 24.261719-54.085938 54.085937-54.085938h123.933594c29.828125 0 54.085938 24.257813 54.085938 54.085938 0 2.117188-.988282 4.117188-2.667969 5.410156l-24.640625 18.953125v51.253907c.003906 3.773437-3.050781 6.828124-6.824219 6.828124zm-157.011719-13.65625h150.183594v-47.785156c0-2.121094.988282-4.121094 2.667969-5.414062l24.503906-18.851563c-1.664062-20.773437-19.097656-37.175781-40.296875-37.175781h-123.933594c-21.199218 0-38.632812 16.402344-40.296874 37.175781l24.503906 18.851563c1.679687 1.292968 2.667968 3.292968 2.667968 5.414062zm184.320313-68.792968h.066406zm0 0" fill="#4c241d"/><path d="m207.160156 310.03125c-10.242187 0-18.546875-8.304688-18.546875-18.546875v-41.476563c0-2.703124 2.191407-4.894531 4.894531-4.894531h27.308594c2.703125 0 4.894532 2.191407 4.894532 4.894531v41.476563c-.003907 10.246094-8.304688 18.546875-18.550782 18.546875zm0 0" fill="#fff"/><path d="m207.160156 316.859375c-13.992187 0-25.375-11.378906-25.375-25.371094v-41.476562c0-6.464844 5.261719-11.726563 11.722656-11.726563h27.304688c6.460938 0 11.71875 5.261719 11.71875 11.726563v41.476562c0 13.992188-11.378906 25.371094-25.371094 25.371094zm-11.71875-64.917969v39.546875c0 6.457031 5.257813 11.71875 11.71875 11.71875 6.460938 0 11.71875-5.261719 11.71875-11.71875v-39.546875zm0 0" fill="#4c241d"/><path d="m374.609375 57.832031c0 28.171875-22.839844 51.007813-51.007813 51.007813-28.171874 0-51.007812-22.835938-51.007812-51.007813 0-28.167969 22.835938-51.003906 51.007812-51.003906 28.167969 0 51.007813 22.835937 51.007813 51.003906zm0 0" fill="#fff"/><path d="m323.601562 115.664062c-31.886718 0-57.835937-25.945312-57.835937-57.832031s25.949219-57.832031 57.835937-57.832031c31.886719 0 57.832032 25.945312 57.832032 57.832031 0 31.890625-25.945313 57.832031-57.832032 57.832031zm0-102.011718c-24.359374 0-44.179687 19.820312-44.179687 44.179687 0 24.363281 19.816406 44.183594 44.179687 44.183594 24.359376 0 44.179688-19.820313 44.179688-44.183594 0-24.359375-19.820312-44.179687-44.179688-44.179687zm0 0" fill="#4c241d"/><path d="m34.433594 95.574219v91.25c0 13.695312 11.101562 24.800781 24.800781 24.800781h123.410156c16.171875 0 29.285157-13.109375 29.285157-29.28125v-86.769531zm0 0" fill="#fff"/><path d="m182.640625 218.453125h-123.40625c-17.441406 0-31.628906-14.1875-31.628906-31.625v-91.253906c0-3.773438 3.054687-6.828125 6.828125-6.828125h177.492187c3.773438 0 6.828125 3.054687 6.828125 6.828125v86.765625c0 19.914062-16.199218 36.113281-36.113281 36.113281zm-141.378906-116.054687v84.429687c0 9.914063 8.058593 17.972656 17.972656 17.972656h123.40625c12.386719 0 22.460937-10.074219 22.460937-22.460937v-79.941406zm0 0" fill="#4c241d"/><path d="m190.222656 47.785156h-134.085937c-11.988281 0-21.703125 9.71875-21.703125 21.707032v26.082031h177.492187v-26.082031c0-11.988282-9.71875-21.707032-21.703125-21.707032zm0 0" fill="#fc8c29"/><path d="m211.925781 102.398438h-177.492187c-3.773438 0-6.828125-3.050782-6.828125-6.824219v-26.082031c0-15.730469 12.800781-28.53125 28.535156-28.53125h134.082031c15.730469 0 28.53125 12.800781 28.53125 28.53125v26.082031c0 3.773437-3.054687 6.824219-6.828125 6.824219zm-170.664062-13.652344h163.839843v-19.253906c0-8.207032-6.675781-14.878907-14.882812-14.878907h-134.078125c-8.207031 0-14.878906 6.671875-14.878906 14.878907zm0 0" fill="#4c241d"/><path d="m164.140625 68.265625c-3.773437 0-6.828125-3.050781-6.828125-6.824219v-34.132812c0-3.773438 3.054688-6.828125 6.828125-6.828125s6.824219 3.054687 6.824219 6.828125v34.132812c0 3.773438-3.050782 6.824219-6.824219 6.824219zm0 0" fill="#4c241d"/><path d="m82.21875 68.265625c-3.773438 0-6.824219-3.050781-6.824219-6.824219v-34.132812c0-3.773438 3.050781-6.828125 6.824219-6.828125s6.828125 3.054687 6.828125 6.828125v34.132812c0 3.773438-3.054687 6.824219-6.828125 6.824219zm0 0" fill="#4c241d"/><path d="m337.507812 78.574219c-1.027343 0-2.066406-.234375-3.046874-.722657l-18.546876-9.273437c-2.3125-1.160156-3.773437-3.519531-3.773437-6.105469v-27.824218c0-3.773438 3.054687-6.828126 6.828125-6.828126s6.824219 3.054688 6.824219 6.828126v23.605468l14.773437 7.386719c3.375 1.6875 4.738282 5.785156 3.054688 9.160156-1.199219 2.390625-3.605469 3.773438-6.113282 3.773438zm0 0" fill="#4c241d"/><path d="m275.621094 184.578125c0 45.699219-22.363282 83.464844-68.460938 83.464844s-68.460937-37.765625-68.460937-83.464844c0-45.703125 22.363281-83.464844 68.460937-83.464844s68.460938 37.761719 68.460938 83.464844zm0 0" fill="#fff"/><path d="m207.160156 274.867188c-45.734375 0-75.285156-35.441407-75.285156-90.285157 0-54.855469 29.550781-90.292969 75.285156-90.292969s75.285156 35.441407 75.285156 90.292969c0 54.84375-29.550781 90.285157-75.285156 90.285157zm0-166.925782c-45.441406 0-61.632812 39.585938-61.632812 76.636719 0 37.046875 16.191406 76.632813 61.632812 76.632813s61.632813-39.585938 61.632813-76.632813c0-37.050781-16.191407-76.636719-61.632813-76.636719zm0 0" fill="#4c241d"/><path d="m270.453125 153.683594c21.308594-27.34375 60.753906-32.238282 88.101563-10.929688 27.347656 21.308594 32.242187 60.753906 10.929687 88.101563-21.308594 27.347656-60.753906 32.242187-88.101563 10.929687-4.671874-3.636718-8.636718-7.839844-11.976562-12.390625l-28.75-3.429687 20.304688-12.4375c-7.03125-19.582032-4.242188-42.214844 9.492187-59.84375zm0 0" fill="#a9ba5a"/><g fill="#4c241d"><path d="m319.894531 261.839844c-14.960937 0-30.019531-4.785156-42.703125-14.667969-4.199218-3.265625-8.039062-7.074219-11.453125-11.339844l-25.886719-3.085937c-2.882812-.347656-5.238281-2.480469-5.859374-5.320313-.625-2.839843.621093-5.761719 3.097656-7.28125l15.753906-9.652343c-5.757812-21.140626-1.351562-43.574219 12.21875-61 23.59375-30.28125 67.429688-35.699219 97.679688-12.125 30.273437 23.59375 35.707031 67.414062 12.125 97.679687-13.699219 17.585937-34.242188 26.792969-54.972657 26.792969zm-58.90625-40.328125 9.222657 1.101562c1.882812.226563 3.582031 1.222657 4.703124 2.738281 3.097657 4.234376 6.691407 7.953126 10.664063 11.050782 24.328125 18.972656 59.566406 14.585937 78.523437-9.742188 18.957032-24.332031 14.585938-59.558594-9.742187-78.519531-24.355469-18.964844-59.566406-14.582031-78.519531 9.738281-11.835938 15.195313-14.992188 35.136719-8.453125 53.339844 1.09375 3.042969-.101563 6.441406-2.859375 8.128906zm0 0"/><path d="m348.460938 177.492188h-34.132813c-3.773437 0-6.828125-3.050782-6.828125-6.824219 0-3.773438 3.054688-6.828125 6.828125-6.828125h34.132813c3.773437 0 6.824218 3.054687 6.824218 6.828125 0 3.773437-3.050781 6.824219-6.824218 6.824219zm0 0"/><path d="m348.460938 197.972656h-34.132813c-3.773437 0-6.828125-3.050781-6.828125-6.824218 0-3.773438 3.054688-6.828126 6.828125-6.828126h34.132813c3.773437 0 6.824218 3.054688 6.824218 6.828126 0 3.773437-3.050781 6.824218-6.824218 6.824218zm0 0"/><path d="m302.324219 171.328125c0 4.132813-3.351563 7.484375-7.484375 7.484375-4.136719 0-7.488282-3.351562-7.488282-7.484375 0-4.136719 3.351563-7.488281 7.488282-7.488281 4.132812 0 7.484375 3.351562 7.484375 7.488281zm0 0"/><path d="m302.324219 191.808594c0 4.132812-3.351563 7.484375-7.484375 7.484375-4.136719 0-7.488282-3.351563-7.488282-7.484375 0-4.136719 3.351563-7.488282 7.488282-7.488282 4.132812 0 7.484375 3.351563 7.484375 7.488282zm0 0"/><path d="m348.460938 218.453125h-34.132813c-3.773437 0-6.828125-3.054687-6.828125-6.828125s3.054688-6.824219 6.828125-6.824219h34.132813c3.773437 0 6.824218 3.050781 6.824218 6.824219s-3.050781 6.828125-6.824218 6.828125zm0 0"/><path d="m302.324219 212.289062c0 4.132813-3.351563 7.484376-7.484375 7.484376-4.136719 0-7.488282-3.351563-7.488282-7.484376 0-4.136718 3.351563-7.488281 7.488282-7.488281 4.132812 0 7.484375 3.351563 7.484375 7.488281zm0 0"/><path d="m89.046875 136.535156h-27.308594c-3.773437 0-6.824219-3.054687-6.824219-6.828125 0-3.773437 3.050782-6.828125 6.824219-6.828125h27.308594c3.773437 0 6.828125 3.054688 6.828125 6.828125 0 3.773438-3.054688 6.828125-6.828125 6.828125zm0 0"/><path d="m89.046875 163.839844h-27.308594c-3.773437 0-6.824219-3.054688-6.824219-6.828125 0-3.773438 3.050782-6.824219 6.824219-6.824219h27.308594c3.773437 0 6.828125 3.050781 6.828125 6.824219 0 3.773437-3.054688 6.828125-6.828125 6.828125zm0 0"/></g></svg>